<?xml version="1.0" standalone="no"?>
<!DOCTYPE svg PUBLIC "-//W3C//DTD SVG 20010904//EN"
 "http://www.w3.org/TR/2001/REC-SVG-20010904/DTD/svg10.dtd">
<svg version="1.0" xmlns="http://www.w3.org/2000/svg"
 width="512.000000pt" height="512.000000pt" viewBox="0 0 512.000000 512.000000"
 preserveAspectRatio="xMidYMid meet">
<metadata>
Created by potrace 1.14, written by Peter Selinger 2001-2017
</metadata>
<g transform="translate(0.000000,512.000000) scale(0.100000,-0.100000)"
fill="#000000" stroke="none">
<path d="M1315 5113 c-496 -64 -936 -376 -1160 -823 -55 -109 -98 -231 -127
-361 l-23 -104 0 -1265 0 -1265 23 -104 c46 -205 131 -398 249 -564 74 -105
245 -276 350 -350 181 -128 403 -220 623 -258 113 -19 158 -19 1356 -16 l1239
3 105 26 c272 68 500 189 688 363 227 212 371 460 450 775 l26 105 3 1239 c3
1198 3 1243 -16 1356 -71 414 -315 786 -666 1012 -147 95 -298 159 -485 206
l-105 26 -1250 2 c-687 1 -1263 0 -1280 -3z m2493 -1646 l172 -172 -908 -908
-907 -907 -513 513 -512 512 175 175 175 175 338 -338 337 -337 730 730 c401
402 732 730 735 730 3 0 83 -78 178 -173z"/>
</g>
</svg>
